<svg width="10" height="10" viewBox="0 0 10 10" fill="none" xmlns="http://www.w3.org/2000/svg">
<path fill-rule="evenodd" clip-rule="evenodd" d="M1.12056 1.74556C1.23777 1.62835 1.39674 1.5625 1.5625 1.5625H8.4375C8.60326 1.5625 8.76223 1.62835 8.87944 1.74556C8.99665 1.86277 9.0625 2.02174 9.0625 2.1875V7.1875C9.0625 7.35326 8.99665 7.51223 8.87944 7.62944C8.76223 7.74665 8.60326 7.8125 8.4375 7.8125H6.11494L6.11572 7.81296L5.53575 8.78088C5.47947 8.87241 5.40067 8.94798 5.30688 9.00041C5.2131 9.05284 5.10745 9.08037 5 9.08037C4.89256 9.08037 4.7869 9.05284 4.69312 9.00041C4.59933 8.94798 4.52054 8.8724 4.46427 8.78087L4.46239 8.77782L3.884 7.8125H1.5625C1.39674 7.8125 1.23777 7.74665 1.12056 7.62944C1.00335 7.51223 0.9375 7.35326 0.9375 7.1875V2.1875C0.9375 2.02174 1.00335 1.86277 1.12056 1.74556ZM6.11494 7.8125C6.11528 7.81241 6.11541 7.81216 6.11571 7.81198C6.1163 7.81164 6.11679 7.81116 6.11714 7.81057L6.11377 7.80859L6.11377 7.8118L6.11494 7.8125ZM6.11328 7.8115V7.80831L5.84766 7.65234L6.11328 7.8115ZM5.579 7.49271C5.63369 7.40013 5.71148 7.32333 5.80477 7.26982C5.89853 7.21605 6.0047 7.18767 6.11279 7.1875L6.11328 7.1875L8.4375 7.1875V2.1875L1.5625 2.1875L1.5625 7.1875H3.88721C3.9953 7.18767 4.10147 7.21605 4.19523 7.26982C4.28852 7.32333 4.36631 7.40013 4.421 7.49271L4.99687 8.4538C4.9972 8.45424 4.99762 8.4546 4.99809 8.45487C4.99825 8.45495 4.9984 8.45503 4.99857 8.45509C4.99902 8.45527 4.99951 8.45537 5 8.45537C5.00067 8.45537 5.00132 8.45519 5.00191 8.45487C5.00238 8.4546 5.0028 8.45424 5.00313 8.4538L5.579 7.49271Z" fill="#FF9900"/>
<path d="M5 5.15625C5.25888 5.15625 5.46875 4.94638 5.46875 4.6875C5.46875 4.42862 5.25888 4.21875 5 4.21875C4.74112 4.21875 4.53125 4.42862 4.53125 4.6875C4.53125 4.94638 4.74112 5.15625 5 5.15625Z" fill="#FF9900"/>
<path d="M3.125 5.15625C3.38388 5.15625 3.59375 4.94638 3.59375 4.6875C3.59375 4.42862 3.38388 4.21875 3.125 4.21875C2.86612 4.21875 2.65625 4.42862 2.65625 4.6875C2.65625 4.94638 2.86612 5.15625 3.125 5.15625Z" fill="#FF9900"/>
<path d="M6.875 5.15625C7.13388 5.15625 7.34375 4.94638 7.34375 4.6875C7.34375 4.42862 7.13388 4.21875 6.875 4.21875C6.61612 4.21875 6.40625 4.42862 6.40625 4.6875C6.40625 4.94638 6.61612 5.15625 6.875 5.15625Z" fill="#FF9900"/>
</svg>
